<svg width="21" height="21" viewBox="0 0 21 21" fill="none" xmlns="http://www.w3.org/2000/svg">
<path d="M17.1667 6.7666H3.83333C3.3731 6.7666 3 7.1397 3 7.59993V9.2666C3 9.72684 3.3731 10.0999 3.83333 10.0999H17.1667C17.6269 10.0999 18 9.72684 18 9.2666V7.59993C18 7.1397 17.6269 6.7666 17.1667 6.7666Z" stroke="#00172E" stroke-width="1.66667" stroke-linecap="round" stroke-linejoin="round"/>
<path d="M10.5 6.7666V17.5999" stroke="#00172E" stroke-width="1.66667" stroke-linecap="round" stroke-linejoin="round"/>
<path d="M16.3332 10.1001V15.9334C16.3332 16.3755 16.1576 16.7994 15.845 17.1119C15.5325 17.4245 15.1085 17.6001 14.6665 17.6001H6.33317C5.89114 17.6001 5.46722 17.4245 5.15466 17.1119C4.8421 16.7994 4.6665 16.3755 4.6665 15.9334V10.1001" stroke="#00172E" stroke-width="1.66667" stroke-linecap="round" stroke-linejoin="round"/>
<path d="M6.74984 6.76664C6.1973 6.76664 5.6674 6.54715 5.2767 6.15645C4.886 5.76575 4.6665 5.23584 4.6665 4.68331C4.6665 4.13077 4.886 3.60087 5.2767 3.21017C5.6674 2.81947 6.1973 2.59997 6.74984 2.59997C7.55374 2.58597 8.34152 2.97602 9.01045 3.71927C9.67938 4.46253 10.1984 5.52448 10.4998 6.76664C10.8013 5.52448 11.3203 4.46253 11.9892 3.71927C12.6581 2.97602 13.4459 2.58597 14.2498 2.59997C14.8024 2.59997 15.3323 2.81947 15.723 3.21017C16.1137 3.60087 16.3332 4.13077 16.3332 4.68331C16.3332 5.23584 16.1137 5.76575 15.723 6.15645C15.3323 6.54715 14.8024 6.76664 14.2498 6.76664" stroke="#00172E" stroke-width="1.66667" stroke-linecap="round" stroke-linejoin="round"/>
</svg>
