<svg width="68" height="28" viewBox="0 0 68 28" fill="none" xmlns="http://www.w3.org/2000/svg">
<path d="M56.4577 27.9011C59.5918 27.9011 61.0669 26.7053 62.3554 23.0804L68 7.24832H64.7318L60.9466 19.497H60.8803L57.095 7.26491H53.7342L59.1798 22.3339L58.8881 23.2505C58.6821 24.5624 57.5042 25.4984 56.1785 25.4016C55.9255 25.4016 55.4347 25.3753 55.2356 25.3491V27.8375C55.6407 27.8928 56.0499 27.9191 56.4577 27.9177V27.9011ZM45.5666 19.9726C43.8523 19.9726 42.7643 19.1431 42.7643 17.8878C42.7643 16.5869 43.8136 15.8293 45.8196 15.7091L49.3919 15.4837V16.6533C49.3131 18.5805 47.6859 20.0804 45.7587 20.0016C45.6938 19.9989 45.6302 19.9934 45.5666 19.9878V19.9726ZM44.7039 22.4293C46.6491 22.4818 48.4684 21.4685 49.4458 19.786H49.5122V22.2744H52.4872V11.9681C52.4872 8.97917 50.0969 7.05339 46.4168 7.05339C43.0035 7.05339 40.4791 9.00544 40.3864 11.6888H43.2827C43.6283 10.3243 44.9251 9.42433 46.3242 9.5764C48.29 9.5764 49.3919 10.493 49.3919 12.1796V13.3215L45.3827 13.5607C41.65 13.786 39.6316 15.3137 39.6316 17.9708C39.6288 20.6652 41.7136 22.4445 44.7025 22.4445L44.7039 22.4293ZM27.4631 4.27323H31.1681C33.9579 4.27323 35.5519 5.76077 35.5519 8.3778C35.5519 10.9948 33.9579 12.4948 31.1557 12.4948H27.4631V4.27323ZM24.2488 1.56358V22.2703H27.4631V15.2114H31.9132C35.5381 15.4063 38.6335 12.6261 38.8284 9.00129C38.8395 8.79531 38.8408 8.5907 38.8325 8.38471C39.004 4.79995 36.2376 1.75574 32.6529 1.58293C32.4414 1.57326 32.2312 1.57464 32.0197 1.58432L24.2488 1.56358ZM13.5802 5.4276C11.7333 5.32115 10.1531 6.47689 9.2766 6.47689C8.40011 6.47689 7.04528 5.48151 5.584 5.50916C3.64854 5.55893 1.8845 6.63035 0.948562 8.32526C-1.04358 11.7524 0.430136 16.8261 2.35592 19.6146C3.29877 20.997 4.42964 22.5108 5.9158 22.4569C7.32316 22.4044 7.88168 21.5403 9.58212 21.5403C11.2826 21.5403 11.7872 22.4569 13.2747 22.4293C14.8148 22.403 15.7853 21.0468 16.7309 19.6643C17.3973 18.6855 17.9157 17.6141 18.271 16.4846C16.4558 15.6911 15.2793 13.9035 15.2696 11.9225C15.2973 10.175 16.2125 8.56305 17.7 7.64647C16.7516 6.29994 15.2295 5.47322 13.583 5.41515L13.5802 5.4276ZM12.4273 3.59858C11.6185 4.61747 10.3812 5.20225 9.08028 5.17875C8.99733 3.90964 9.42867 2.66126 10.2761 1.71289C11.1194 0.734094 12.3084 0.120275 13.5941 0C13.6853 1.30506 13.2664 2.59352 12.4245 3.59443" fill="#111111"/>
</svg>
