<svg width="17" height="18" viewBox="0 0 17 18" fill="none" xmlns="http://www.w3.org/2000/svg">
<g clip-path="url(#clip0_1781_39817)">
<path d="M12.0418 15.375V13.9583C12.0418 13.2069 11.7433 12.4862 11.212 11.9549C10.6806 11.4235 9.95994 11.125 9.2085 11.125H3.54183C2.79038 11.125 2.06971 11.4235 1.53836 11.9549C1.00701 12.4862 0.708496 13.2069 0.708496 13.9583V15.375" stroke="white" stroke-width="2" stroke-linecap="round" stroke-linejoin="round"/>
<path d="M6.37484 8.29167C7.93964 8.29167 9.20817 7.02314 9.20817 5.45833C9.20817 3.89353 7.93964 2.625 6.37484 2.625C4.81003 2.625 3.5415 3.89353 3.5415 5.45833C3.5415 7.02314 4.81003 8.29167 6.37484 8.29167Z" stroke="white" stroke-width="2" stroke-linecap="round" stroke-linejoin="round"/>
<path d="M16.2915 15.3747V13.958C16.291 13.3303 16.0821 12.7204 15.6975 12.2243C15.3129 11.7281 14.7743 11.3737 14.1665 11.2168" stroke="white" stroke-width="2" stroke-linecap="round" stroke-linejoin="round"/>
<path d="M11.3335 2.7168C11.943 2.87284 12.4831 3.22729 12.8689 3.72427C13.2547 4.22124 13.4641 4.83247 13.4641 5.46159C13.4641 6.09071 13.2547 6.70194 12.8689 7.19891C12.4831 7.69588 11.943 8.05033 11.3335 8.20638" stroke="white" stroke-width="2" stroke-linecap="round" stroke-linejoin="round"/>
</g>
<defs>
<clipPath id="clip0_1781_39817">
<rect width="17" height="17" fill="white" transform="translate(0 0.5)"/>
</clipPath>
</defs>
</svg>
