<svg width="80" height="32" viewBox="0 0 80 32" fill="none" xmlns="http://www.w3.org/2000/svg">
<path d="M25.8969 13.4196C25.898 12.5256 25.8219 11.6331 25.6694 10.752H13.2106V15.8049H20.3464C20.2004 16.6119 19.8913 17.3812 19.4378 18.0664C18.9844 18.7516 18.3959 19.3385 17.7079 19.7918V23.0717H21.9666C24.4602 20.7885 25.8969 17.412 25.8969 13.4196Z" fill="#4285F4"/>
<path d="M13.2106 26.2406C16.7758 26.2406 19.7776 25.078 21.9667 23.0736L17.7079 19.7937C16.5226 20.5918 14.996 21.0473 13.2106 21.0473C9.76473 21.0473 6.83993 18.7405 5.79405 15.6318H1.40686V19.012C2.50644 21.1849 4.19253 23.0115 6.27688 24.288C8.36124 25.5644 10.7618 26.2404 13.2106 26.2406Z" fill="#34A853"/>
<path d="M5.79394 15.6316C5.24102 14.0026 5.24102 12.2386 5.79394 10.6096V7.22949H1.40675C0.481743 9.05742 0 11.0748 0 13.1206C0 15.1664 0.481743 17.1838 1.40675 19.0117L5.79394 15.6316Z" fill="#FBBC04"/>
<path d="M13.2106 5.19407C15.0947 5.1635 16.9151 5.87042 18.2786 7.16202L22.0492 3.41745C19.6582 1.18724 16.4907 -0.0371846 13.2106 0.000860774C10.7618 0.000971608 8.36124 0.676989 6.27688 1.95344C4.19253 3.22989 2.50644 5.05654 1.40686 7.22944L5.79405 10.6096C6.83993 7.50095 9.76473 5.19407 13.2106 5.19407Z" fill="#EA4335"/>
<path d="M37.8346 15.4126V24.6602H34.8805V1.82282H42.7154C43.6506 1.80342 44.5805 1.96814 45.4512 2.30748C46.322 2.64681 47.1165 3.15404 47.7889 3.79989C48.468 4.40653 49.0085 5.15051 49.374 5.98182C49.7396 6.81314 49.9217 7.71253 49.9081 8.61955C49.9276 9.53142 49.7483 10.4367 49.3825 11.2733C49.0167 12.1099 48.473 12.8581 47.7889 13.4665C46.4188 14.7639 44.7277 15.412 42.7154 15.4108H37.8346V15.4126ZM37.8346 4.63444V12.6065H42.7888C43.3319 12.6225 43.8724 12.5257 44.3758 12.3224C44.8791 12.1191 45.3341 11.8137 45.7118 11.4257C46.0875 11.063 46.3861 10.6291 46.59 10.1498C46.7939 9.67046 46.899 9.15539 46.899 8.63504C46.899 8.11468 46.7939 7.59961 46.59 7.12028C46.3861 6.64095 46.0875 6.2071 45.7118 5.84437C45.3388 5.44824 44.8854 5.13536 44.3815 4.92645C43.8775 4.71754 43.3347 4.61739 42.7888 4.63262H37.8346V4.63444Z" fill="#5F6368"/>
<path d="M56.7155 8.52487C58.899 8.52487 60.6226 9.10432 61.8862 10.2632C63.1498 11.4221 63.781 13.0111 63.7798 15.03V24.6603H60.9541V22.4919H60.8256C59.6024 24.2776 57.9754 25.1705 55.9448 25.1705C54.2115 25.1705 52.7613 24.6603 51.5944 23.6398C51.0343 23.1715 50.5866 22.585 50.2837 21.923C49.9809 21.261 49.8306 20.5402 49.8439 19.8133C49.8439 18.1964 50.4592 16.9105 51.6898 15.9557C52.9204 15.0009 54.5632 14.5223 56.6183 14.5198C58.3724 14.5198 59.8171 14.8387 60.9522 15.4765V14.8059C60.9556 14.3103 60.8478 13.8202 60.6368 13.3711C60.4257 12.922 60.1167 12.5251 59.732 12.2093C58.9508 11.5094 57.9327 11.1275 56.8806 11.1397C55.2305 11.1397 53.9246 11.8309 52.9632 13.2133L50.3613 11.5861C51.7925 9.54529 53.9106 8.52487 56.7155 8.52487ZM52.8934 19.877C52.8915 20.2504 52.9794 20.6188 53.1498 20.9517C53.3202 21.2845 53.5683 21.572 53.8733 21.7903C54.5266 22.3007 55.3376 22.5711 56.1687 22.5556C57.4153 22.5536 58.6103 22.0608 59.4917 21.1854C60.4703 20.2706 60.9596 19.1974 60.9596 17.9656C60.0385 17.2367 58.754 16.8723 57.1063 16.8723C55.9063 16.8723 54.9057 17.1596 54.1045 17.7342C53.2953 18.3173 52.8934 19.0261 52.8934 19.877Z" fill="#5F6368"/>
<path d="M80 9.03513L70.1357 31.5481H67.0861L70.7467 23.6709L64.2604 9.03513H67.4714L72.1595 20.2597H72.2237L76.7834 9.03513H80Z" fill="#5F6368"/>
</svg>
